<?xml version="1.0" standalone="no"?>
<!DOCTYPE svg PUBLIC "-//W3C//DTD SVG 20010904//EN"
 "http://www.w3.org/TR/2001/REC-SVG-20010904/DTD/svg10.dtd">
<svg version="1.0" xmlns="http://www.w3.org/2000/svg"
 width="2296.000000pt" height="1740.000000pt" viewBox="0 0 2296.000000 1740.000000"
 preserveAspectRatio="xMidYMid meet">

<g transform="translate(0.000000,1740.000000) scale(0.100000,-0.100000)"
fill="#000000" stroke="none">
<path d="M7250 12833 c-24 -21 -49 -38 -57 -39 -29 -5 -333 -290 -333 -312 0
-5 -23 -33 -50 -62 -28 -29 -58 -66 -68 -82 -9 -15 -20 -28 -24 -28 -5 0 -13
-11 -18 -25 -5 -14 -16 -25 -25 -25 -8 0 -15 -7 -15 -16 0 -9 -9 -27 -20 -41
-11 -14 -20 -31 -20 -37 0 -6 -16 -28 -36 -49 -35 -35 -46 -52 -89 -135 -10
-18 -30 -45 -45 -60 -14 -15 -29 -42 -33 -60 -4 -18 -11 -38 -17 -45 -27 -32
-110 -164 -110 -175 0 -7 -16 -36 -35 -65 -19 -28 -35 -57 -35 -63 0 -6 -8
-22 -19 -35 -10 -13 -22 -40 -26 -59 -4 -19 -13 -42 -20 -50 -7 -8 -25 -42
-40 -75 -14 -33 -32 -71 -40 -85 -7 -14 -16 -43 -20 -65 -4 -22 -16 -54 -26
-71 -21 -35 -24 -54 -9 -54 5 0 16 15 24 33 l13 32 13 -26 c10 -22 9 -32 -3
-56 -9 -16 -19 -54 -23 -84 -4 -30 -12 -61 -19 -69 -7 -8 -18 -31 -23 -50 -6
-19 -20 -60 -32 -90 -34 -87 -52 -150 -47 -168 3 -15 5 -14 11 3 4 11 18 43
32 71 13 28 24 56 24 63 0 6 6 22 14 34 8 12 21 47 30 77 29 108 64 180 109
230 8 8 17 27 21 43 8 32 22 35 31 7 8 -26 22 -25 31 2 4 13 12 27 19 33 7 5
15 26 18 46 3 19 19 55 35 80 16 24 44 76 62 114 17 39 35 77 41 85 5 8 15 26
21 40 7 14 18 31 25 37 6 7 14 26 18 42 3 16 13 35 21 42 8 6 14 17 14 24 0 7
9 24 20 38 11 14 20 32 20 40 0 8 9 26 20 40 11 14 20 32 20 41 0 9 9 24 20
33 11 10 20 22 20 29 0 6 9 19 20 29 11 10 20 24 20 32 0 7 9 21 20 30 11 10
20 25 20 34 0 9 7 20 15 23 9 3 21 19 26 36 6 16 15 30 20 30 5 0 14 10 18 23
5 12 28 44 50 71 23 26 41 52 41 58 0 8 43 72 60 88 14 14 50 70 50 79 0 5 7
11 15 15 8 3 15 10 15 15 0 5 17 33 38 63 20 30 61 90 91 134 30 43 72 100 94
127 21 26 35 47 30 47 -4 0 -3 4 2 8 6 4 23 22 40 40 25 28 27 34 15 42 -22
14 -22 14 -70 -27z"/>
<path d="M15950 12600 c0 -5 3 -10 8 -10 4 0 8 -12 9 -27 0 -15 8 -32 17 -39
9 -6 16 -16 16 -21 0 -6 8 -13 18 -16 9 -2 28 -26 41 -51 14 -26 44 -67 68
-91 24 -24 43 -51 43 -60 0 -9 9 -28 20 -42 11 -14 20 -35 20 -45 0 -11 8 -22
18 -25 17 -5 62 -66 62 -84 0 -5 18 -29 40 -51 22 -23 40 -50 40 -59 0 -9 9
-28 20 -41 11 -14 24 -36 30 -49 20 -45 39 -72 54 -81 9 -5 16 -16 16 -26 0
-9 17 -41 39 -72 21 -30 42 -69 45 -87 4 -17 14 -37 22 -44 8 -6 14 -19 14
-29 0 -9 9 -29 20 -43 11 -14 20 -29 20 -35 0 -5 9 -17 20 -27 10 -9 22 -37
26 -61 3 -24 12 -49 20 -55 8 -6 14 -17 14 -25 0 -7 18 -47 40 -89 22 -42 40
-88 40 -103 0 -15 9 -40 20 -57 11 -16 20 -39 20 -49 0 -11 8 -29 18 -40 19
-21 62 -165 62 -206 0 -12 9 -33 20 -47 11 -14 20 -37 20 -50 0 -13 9 -36 19
-51 22 -31 35 -107 25 -146 -10 -42 -41 -34 -54 13 -6 22 -19 59 -30 83 -11
24 -20 63 -20 88 0 33 -6 50 -20 63 -13 11 -20 29 -20 51 0 19 -6 41 -13 48
-7 7 -19 29 -27 48 -7 19 -20 44 -27 55 -7 11 -13 36 -13 57 0 35 -27 89 -64
128 -7 8 -17 31 -21 50 -4 19 -14 47 -21 62 -8 15 -14 36 -14 48 0 11 -9 28
-20 37 -11 10 -20 22 -20 28 0 6 -11 26 -25 45 -14 19 -25 43 -25 54 0 12 -7
30 -15 40 -8 11 -15 29 -15 41 0 12 -20 48 -45 79 -25 32 -45 66 -45 76 0 10
-7 23 -15 30 -8 7 -15 21 -15 31 0 10 -18 37 -39 61 -23 24 -42 57 -46 77 -4
19 -15 46 -26 59 -10 14 -19 31 -19 38 0 7 -6 17 -14 21 -16 10 -56 86 -56
109 0 9 -9 18 -20 21 -11 3 -20 10 -20 16 0 5 -10 20 -22 33 -45 46 -58 64
-58 79 0 8 -9 20 -20 27 -11 7 -20 17 -20 22 0 5 -16 23 -35 42 -19 18 -35 37
-35 43 0 6 -9 11 -20 11 -18 0 -19 -3 -10 -20 7 -14 7 -20 0 -20 -14 0 -13
-47 3 -53 9 -4 9 -7 0 -17 -10 -10 -9 -20 5 -44 9 -17 20 -32 25 -34 4 -2 7
-16 7 -32 0 -15 7 -33 15 -40 9 -7 14 -19 11 -26 -2 -7 4 -20 15 -30 10 -9 19
-25 19 -34 0 -17 76 -171 104 -212 9 -12 16 -30 16 -40 0 -9 6 -23 13 -30 14
-14 28 -43 33 -67 1 -8 6 -17 11 -20 15 -11 49 -66 63 -101 7 -19 17 -39 22
-45 4 -5 8 -17 8 -27 0 -9 9 -22 20 -28 13 -7 20 -21 20 -39 0 -15 9 -36 20
-46 11 -10 20 -29 20 -42 0 -12 9 -32 20 -43 11 -11 20 -31 20 -44 0 -14 9
-31 19 -39 14 -9 21 -27 22 -55 2 -27 8 -44 18 -47 23 -8 61 -72 61 -103 0
-15 9 -40 20 -57 11 -16 20 -42 20 -58 0 -15 9 -44 20 -64 11 -21 20 -46 20
-57 0 -11 7 -27 16 -37 9 -10 18 -44 21 -81 3 -35 14 -79 24 -98 11 -19 19
-46 19 -60 0 -14 7 -38 15 -53 8 -15 17 -45 21 -65 3 -20 13 -47 21 -60 8 -13
17 -56 20 -95 3 -40 11 -83 18 -97 7 -14 15 -49 19 -79 4 -29 13 -63 21 -75
16 -26 52 -281 60 -436 3 -64 11 -134 16 -155 10 -42 31 -248 30 -299 0 -16
-4 -32 -9 -35 -4 -3 -8 -172 -8 -376 0 -254 -4 -384 -12 -415 -6 -25 -14 -99
-18 -165 -3 -66 -10 -133 -15 -150 -5 -16 -13 -83 -18 -149 -6 -73 -16 -127
-25 -141 -8 -13 -18 -47 -22 -76 -4 -30 -12 -65 -19 -79 -7 -14 -15 -56 -18
-95 -3 -38 -13 -83 -21 -100 -9 -16 -16 -39 -16 -50 0 -11 -9 -40 -20 -64 -11
-24 -20 -53 -20 -64 0 -11 -9 -39 -19 -61 -10 -23 -21 -64 -24 -91 -3 -28 -12
-64 -20 -80 -38 -76 -57 -128 -57 -153 0 -15 -9 -40 -20 -57 -11 -16 -20 -46
-20 -66 0 -21 -8 -47 -20 -62 -11 -14 -20 -28 -20 -32 0 -3 -11 -30 -24 -58
-13 -29 -34 -76 -47 -104 -13 -29 -27 -53 -31 -53 -4 0 -11 -18 -14 -40 -4
-21 -15 -47 -25 -56 -11 -9 -19 -27 -19 -39 0 -12 -9 -34 -20 -48 -11 -14 -20
-32 -20 -40 0 -8 -7 -17 -14 -20 -8 -3 -18 -22 -21 -41 -4 -19 -16 -42 -26
-52 -10 -9 -19 -22 -19 -29 0 -7 -9 -20 -20 -30 -11 -10 -20 -31 -20 -47 0
-15 -5 -28 -11 -28 -5 0 -16 -15 -24 -33 -8 -19 -21 -39 -29 -47 -9 -7 -16
-21 -16 -31 0 -11 -3 -19 -8 -19 -4 0 -13 -19 -20 -42 -8 -24 -24 -54 -36 -68
-12 -14 -28 -44 -35 -67 -6 -24 -16 -43 -20 -43 -5 0 -16 -30 -26 -67 -9 -38
-22 -80 -27 -95 -12 -33 -2 -68 20 -68 13 0 14 2 3 9 -11 7 -11 9 0 13 23 8
37 -2 32 -23 -5 -16 -11 -19 -32 -15 -24 6 -24 5 -6 -6 11 -6 22 -11 24 -9 2
1 7 -2 10 -8 9 -13 81 45 81 64 0 8 9 19 20 25 11 6 20 19 20 29 0 9 11 28 25
41 14 13 25 30 25 37 0 21 29 73 41 73 16 0 72 60 74 79 0 9 9 28 18 41 9 14
17 31 17 40 0 9 7 26 16 39 9 13 17 33 18 45 1 15 7 20 20 18 15 -3 18 1 13
17 -3 14 5 33 23 56 16 20 31 49 35 64 3 16 15 37 26 47 20 18 78 133 94 184
4 14 13 32 20 40 20 24 65 118 65 137 0 10 7 26 15 36 7 11 16 36 20 57 4 22
13 45 22 52 17 14 63 112 63 135 0 7 15 46 34 86 19 40 37 88 41 107 4 19 13
44 20 55 7 11 16 41 20 65 4 25 22 84 41 131 19 48 37 102 40 120 3 19 12 50
19 69 28 72 47 137 60 205 8 39 21 104 29 145 9 41 25 120 35 175 11 55 25
125 31 155 6 30 16 93 21 140 6 47 17 128 25 180 26 165 37 516 24 798 -6 139
-8 257 -5 262 3 6 12 10 20 10 7 0 16 7 19 16 10 26 7 104 -5 126 -11 21 -12
21 -25 3 -12 -16 -14 -9 -14 64 0 82 0 83 -29 94 -31 11 -41 31 -41 80 0 63
45 93 57 37 3 -17 10 -33 15 -36 8 -5 3 54 -11 111 -10 38 -1 225 10 225 4 0
10 -20 13 -45 3 -25 8 -64 11 -88 3 -23 14 -56 25 -72 11 -17 20 -45 20 -64 0
-19 7 -60 14 -90 21 -77 59 -673 53 -807 -26 -563 -43 -766 -82 -959 -8 -38
-19 -108 -25 -155 -15 -117 -45 -259 -59 -273 -6 -6 -11 -24 -11 -41 0 -39
-16 -125 -47 -256 -14 -58 -30 -132 -37 -165 -7 -33 -20 -72 -30 -87 -10 -15
-22 -42 -26 -60 -26 -100 -44 -157 -60 -188 -28 -56 -46 -100 -69 -175 -27
-85 -39 -111 -68 -151 -13 -17 -23 -36 -23 -43 0 -21 -42 -114 -77 -169 -18
-29 -33 -56 -33 -61 0 -17 -60 -144 -88 -185 -15 -22 -40 -70 -55 -105 -15
-35 -36 -75 -47 -89 -11 -13 -20 -29 -20 -33 0 -5 -21 -39 -46 -76 -25 -36
-59 -94 -76 -127 -17 -34 -38 -66 -47 -73 -9 -6 -30 -36 -45 -67 -16 -31 -32
-56 -36 -56 -6 0 -80 -115 -80 -125 0 -12 70 68 85 99 11 21 27 41 35 43 15 4
42 43 66 93 6 14 24 39 40 55 28 30 49 63 77 120 8 17 29 43 46 58 18 14 37
40 42 57 6 16 17 30 25 30 10 0 14 12 14 39 0 40 14 62 51 81 11 7 19 7 19 1
0 -5 2 -16 6 -24 3 -8 -12 -32 -35 -58 -28 -29 -41 -52 -41 -71 0 -17 -7 -31
-20 -38 -13 -7 -20 -21 -20 -39 0 -17 -13 -44 -31 -67 -17 -22 -37 -52 -44
-69 -8 -16 -27 -48 -43 -70 -16 -22 -51 -74 -78 -115 -26 -41 -59 -88 -71
-103 -13 -16 -23 -35 -23 -43 0 -23 42 23 75 81 16 28 48 72 72 100 24 27 43
57 43 65 0 9 18 33 39 54 22 21 42 50 46 64 3 14 15 37 26 50 10 14 19 29 19
34 0 6 18 33 40 60 22 28 40 57 40 64 0 19 66 141 95 176 14 16 25 36 25 45 0
8 15 41 34 72 18 31 37 67 41 81 4 14 16 41 26 60 11 19 19 40 19 46 0 7 19
52 41 101 23 48 50 108 61 133 11 25 25 59 33 75 7 17 16 44 20 60 4 17 12 44
20 60 14 33 40 108 59 170 6 22 17 50 24 62 6 12 16 55 21 95 10 78 36 158 64
198 19 27 24 124 7 135 -5 3 -10 0 -10 -7 0 -8 -5 -5 -11 6 -8 13 -8 25 0 43
10 23 12 23 28 7 16 -15 17 -15 24 2 4 11 8 38 8 61 1 23 6 45 11 48 6 3 10
27 10 53 1 26 7 58 15 72 8 14 14 40 15 58 0 18 7 49 16 70 25 59 49 326 64
712 12 286 2 737 -20 985 -5 55 -14 158 -20 228 -6 77 -16 137 -25 150 -7 12
-17 47 -20 77 -4 30 -13 80 -20 110 -7 30 -18 95 -25 144 -6 50 -13 93 -16 97
-2 4 -9 42 -14 85 -5 42 -16 84 -22 92 -13 15 -36 92 -64 217 -8 38 -19 74
-23 80 -5 5 -12 26 -16 45 -4 19 -13 44 -21 55 -7 11 -16 38 -20 60 -4 22 -13
49 -20 60 -7 11 -16 38 -19 60 -4 22 -13 49 -19 60 -7 11 -18 39 -24 63 -7 23
-17 42 -21 42 -5 0 -12 17 -16 38 -4 20 -19 57 -34 82 -15 25 -34 63 -41 85
-7 22 -21 51 -31 64 -11 13 -19 31 -19 40 0 9 -16 40 -35 70 -19 29 -35 61
-35 70 0 17 -34 67 -72 104 -9 9 -19 30 -23 47 -4 16 -10 30 -15 30 -4 0 -11
17 -15 37 -4 25 -20 49 -45 73 -21 20 -42 49 -46 65 -4 16 -13 36 -21 43 -7 7
-13 19 -13 27 0 7 -17 31 -37 53 -43 45 -59 67 -73 101 -6 13 -28 40 -49 60
-23 21 -42 50 -46 69 -4 17 -11 32 -16 32 -5 0 -14 11 -19 25 -5 14 -16 25
-24 25 -8 0 -18 9 -21 20 -3 11 -10 20 -14 20 -5 0 -14 13 -21 30 -7 16 -16
27 -21 24 -5 -3 -9 2 -9 10 0 9 -6 16 -13 16 -7 0 -23 9 -36 21 -17 16 -20 24
-10 35 9 11 7 14 -11 14 -13 0 -24 8 -27 20 -3 11 -10 20 -17 21 -56 3 -103
37 -82 59 8 10 8 11 -1 6 -6 -3 -14 -2 -18 4 -8 13 -25 13 -25 0z m1087 -2226
c3 -22 16 -49 30 -61 17 -16 23 -33 23 -62 0 -47 -14 -60 -41 -35 -12 11 -19
30 -19 55 0 21 -7 44 -15 53 -15 15 -20 62 -9 91 10 24 24 5 31 -41z m163
-195 c16 -29 4 -71 -18 -67 -23 4 -31 88 -8 88 8 0 20 -9 26 -21z m-93 -186
c-3 -10 -5 -4 -5 12 0 17 2 24 5 18 2 -7 2 -21 0 -30z m205 -2505 c-8 -8 -9
-4 -5 13 4 13 8 18 11 10 2 -7 -1 -18 -6 -23z m-141 -531 c-13 -13 -15 1 -4
30 7 17 8 17 11 -1 2 -10 -1 -23 -7 -29z m-461 -1117 c0 -11 -4 -20 -10 -20
-5 0 -10 9 -10 20 0 11 5 20 10 20 6 0 10 -9 10 -20z"/>
<path d="M15932 12440 c0 -14 2 -19 5 -12 2 6 2 18 0 25 -3 6 -5 1 -5 -13z"/>
<path d="M12610 11773 c-33 -12 -50 -37 -50 -74 l0 -37 98 -4 c96 -3 98 -4
144 -41 62 -51 75 -102 58 -220 -6 -45 -18 -92 -26 -104 -15 -24 -38 -84 -58
-153 -14 -46 -36 -95 -87 -190 -16 -30 -29 -61 -29 -68 0 -8 -18 -34 -40 -59
-22 -25 -40 -56 -40 -68 0 -12 -6 -28 -14 -34 -8 -7 -17 -27 -20 -45 -4 -19
-13 -39 -21 -46 -11 -9 -12 -16 -2 -31 6 -10 18 -21 25 -24 7 -2 11 -1 8 3 -6
11 25 37 44 37 8 0 16 9 18 20 2 11 11 25 19 32 9 7 21 21 27 32 6 10 26 40
43 65 18 26 36 58 39 71 3 14 10 25 14 25 6 0 81 143 109 210 6 14 15 32 20
40 32 54 76 221 87 326 10 96 -23 195 -86 256 -27 26 -61 50 -76 54 -15 4 -39
13 -53 20 -26 14 -122 18 -151 7z"/>
<path d="M10343 11240 c-3 -11 -10 -20 -15 -20 -12 0 -68 -55 -68 -67 0 -5 -7
-18 -15 -28 -56 -74 -145 -226 -145 -248 0 -5 -8 -21 -18 -35 -39 -57 -101
-333 -108 -482 -12 -227 43 -538 123 -688 18 -34 33 -69 33 -76 0 -8 -18 -45
-40 -84 -22 -38 -40 -79 -40 -91 0 -11 -4 -21 -10 -21 -5 0 -10 -6 -10 -14 0
-7 -12 -49 -26 -92 -48 -147 -49 -291 -2 -383 26 -49 60 -91 75 -91 6 0 22 -9
36 -20 48 -38 266 -36 290 2 20 30 -26 54 -116 61 -44 4 -86 12 -93 18 -8 6
-29 19 -47 28 -38 19 -66 72 -74 142 -7 58 31 231 58 267 10 13 21 36 24 52 4
17 12 30 20 30 7 0 15 9 18 20 8 30 41 25 58 -10 29 -60 103 -137 142 -150 48
-14 73 0 55 30 -7 10 -15 17 -18 15 -3 -2 -12 16 -18 41 -7 25 -17 50 -22 57
-36 43 -90 116 -90 121 0 18 -44 101 -61 115 -18 15 -89 216 -89 251 0 9 -9
33 -20 55 -24 48 -50 225 -50 345 0 103 24 270 45 310 8 16 17 47 21 71 3 24
13 54 20 66 8 12 14 32 14 44 0 40 75 181 108 202 6 4 12 19 12 33 0 27 46 84
67 84 7 0 13 11 13 24 0 13 9 35 21 50 25 32 20 49 -21 70 -30 15 -32 14 -37
-4z"/>
<path d="M6171 10994 c0 -11 3 -14 6 -6 3 7 2 16 -1 19 -3 4 -6 -2 -5 -13z"/>
<path d="M5982 10960 c0 -14 2 -19 5 -12 2 6 2 18 0 25 -3 6 -5 1 -5 -13z"/>
<path d="M12870 10751 c0 -4 -13 -25 -30 -46 -17 -22 -30 -50 -30 -66 0 -41
-46 -125 -85 -155 -19 -15 -35 -32 -35 -39 0 -7 -7 -19 -16 -26 -13 -11 -15
-28 -12 -96 4 -81 5 -84 44 -121 35 -34 45 -47 72 -88 4 -6 21 -17 37 -25 23
-11 31 -22 33 -48 2 -20 -3 -40 -12 -50 -9 -10 -19 -40 -22 -67 -6 -52 -36
-156 -60 -212 -8 -18 -14 -39 -14 -46 0 -8 -11 -21 -25 -30 -14 -9 -25 -24
-25 -34 0 -27 -61 -142 -81 -153 -23 -12 -69 -107 -69 -142 0 -45 35 -34 97
31 30 31 59 66 64 77 5 11 27 45 49 75 22 30 40 60 40 66 0 6 7 17 15 24 8 7
15 20 15 30 0 9 9 29 20 43 11 14 23 40 26 59 3 18 14 51 25 73 44 97 89 342
89 485 0 78 -19 223 -46 349 -26 117 -34 141 -49 141 -8 0 -15 -4 -15 -9z"/>
<path d="M5899 10478 c-6 -24 -17 -59 -24 -78 -7 -19 -15 -53 -19 -75 l-7 -40
24 40 c22 36 31 71 43 168 5 41 -4 33 -17 -15z"/>
<path d="M5816 10197 c-18 -61 -20 -91 -7 -83 10 7 36 124 28 132 -3 3 -12
-19 -21 -49z"/>
<path d="M5770 9940 c-3 -10 -9 -35 -16 -74 -5 -28 -4 -37 4 -32 14 8 26 67
19 93 -3 10 -6 16 -7 13z"/>
<path d="M7672 7863 c-10 -4 -12 -105 -12 -478 1 -417 3 -474 16 -479 9 -3
155 -6 325 -6 l309 0 10 26 c17 44 12 122 -8 133 -10 5 -106 10 -214 10 -108
1 -203 4 -211 7 -33 12 -37 64 -37 424 l0 358 -22 6 c-27 7 -138 7 -156 -1z"/>
<path d="M14870 7610 c-127 -29 -143 -38 -216 -112 -66 -68 -72 -77 -79 -128
-3 -30 -11 -73 -17 -94 -6 -27 -6 -53 1 -80 5 -23 13 -62 16 -87 5 -39 15 -56
73 -116 74 -78 112 -95 237 -108 110 -12 286 32 300 74 3 9 21 27 40 41 19 14
35 30 35 36 0 6 -35 20 -77 32 l-78 20 -60 -29 c-79 -38 -169 -41 -235 -5 -50
26 -70 55 -70 104 0 25 5 35 24 42 13 5 128 6 265 3 280 -7 259 -16 244 110
-8 67 -16 91 -44 132 -64 96 -97 122 -179 143 -102 27 -139 31 -180 22z m143
-183 c73 -52 97 -105 58 -127 -28 -15 -304 -13 -319 2 -7 7 -12 25 -12 42 0
37 68 103 114 109 57 8 127 -3 159 -26z"/>
<path d="M8584 7493 c-37 -7 -148 -125 -153 -163 -1 -8 -5 -69 -8 -134 -4 -96
-2 -122 9 -130 8 -6 17 -19 21 -28 12 -34 137 -19 137 16 0 8 -11 39 -26 69
-15 34 -27 83 -31 125 -5 61 -3 76 20 123 14 30 36 65 49 79 13 14 24 31 26
38 2 12 -5 13 -44 5z"/>
<path d="M11803 6060 c0 -25 2 -35 4 -22 2 12 2 32 0 45 -2 12 -4 2 -4 -23z"/>
<path d="M14492 5899 c6 -16 13 -28 15 -25 8 8 -6 56 -17 56 -5 0 -5 -13 2
-31z"/>
<path d="M11803 5775 c0 -44 2 -61 4 -37 2 23 2 59 0 80 -2 20 -4 1 -4 -43z"/>
<path d="M10380 5810 c-39 -6 -33 -7 38 -8 49 -1 82 2 82 8 0 11 -50 11 -120
0z"/>
<path d="M12403 5803 c20 -2 54 -2 75 0 20 2 3 4 -38 4 -41 0 -58 -2 -37 -4z"/>
<path d="M15950 5216 c0 -2 7 -6 15 -10 8 -3 15 -1 15 4 0 6 -7 10 -15 10 -8
0 -15 -2 -15 -4z"/>
<path d="M16212 5018 c-14 -14 -16 -28 -3 -28 9 0 24 30 18 36 -2 2 -9 -2 -15
-8z"/>
<path d="M16000 4910 c0 -5 5 -10 11 -10 5 0 7 5 4 10 -3 6 -8 10 -11 10 -2 0
-4 -4 -4 -10z"/>
<path d="M11718 2603 c18 -2 45 -2 60 0 15 2 0 4 -33 4 -33 0 -45 -2 -27 -4z"/>
</g>
</svg>
